<mxfile host="app.diagrams.net" modified="2023-04-20T11:08:16.945Z" agent="Mozilla/5.0 (Windows NT 10.0; Win64; x64; rv:109.0) Gecko/20100101 Firefox/112.0" etag="mxBTwavXJUirHlKDCGwi" version="21.2.1" type="device">
  <diagram name="Page-1" id="ms50c55cIUS8pIsnqfXl">
    <mxGraphModel dx="1103" dy="632" grid="1" gridSize="10" guides="1" tooltips="1" connect="1" arrows="1" fold="1" page="1" pageScale="1" pageWidth="827" pageHeight="1169" math="0" shadow="0">
      <root>
        <mxCell id="0" />
        <mxCell id="1" parent="0" />
        <mxCell id="IQ-r9HLCSGWOsrEKadv5-2" value="&lt;p style=&quot;margin:0px;margin-top:4px;text-align:center;&quot;&gt;&lt;b&gt;GenericMenu&lt;/b&gt;&lt;/p&gt;&lt;hr size=&quot;1&quot;&gt;&lt;div style=&quot;height:2px;&quot;&gt;&lt;/div&gt;" style="verticalAlign=top;align=left;overflow=fill;fontSize=12;fontFamily=Helvetica;html=1;whiteSpace=wrap;" parent="1" vertex="1">
          <mxGeometry x="204" y="50" width="140" height="60" as="geometry" />
        </mxCell>
        <mxCell id="80e5l8s0I1vSb8lgDYLV-15" style="edgeStyle=orthogonalEdgeStyle;rounded=0;orthogonalLoop=1;jettySize=auto;html=1;exitX=0.5;exitY=0;exitDx=0;exitDy=0;entryX=0.5;entryY=1;entryDx=0;entryDy=0;endArrow=block;endFill=0;endSize=11;" edge="1" parent="1" source="IQ-r9HLCSGWOsrEKadv5-3" target="IQ-r9HLCSGWOsrEKadv5-2">
          <mxGeometry relative="1" as="geometry" />
        </mxCell>
        <mxCell id="IQ-r9HLCSGWOsrEKadv5-3" value="&lt;p style=&quot;margin:0px;margin-top:4px;text-align:center;&quot;&gt;&lt;b&gt;ManageMenu&lt;/b&gt;&lt;/p&gt;&lt;hr size=&quot;1&quot;&gt;&lt;div style=&quot;height:2px;&quot;&gt;&lt;/div&gt;" style="verticalAlign=top;align=left;overflow=fill;fontSize=12;fontFamily=Helvetica;html=1;whiteSpace=wrap;" parent="1" vertex="1">
          <mxGeometry x="504" y="160" width="140" height="60" as="geometry" />
        </mxCell>
        <mxCell id="80e5l8s0I1vSb8lgDYLV-16" style="edgeStyle=orthogonalEdgeStyle;rounded=0;orthogonalLoop=1;jettySize=auto;html=1;exitX=0.5;exitY=0;exitDx=0;exitDy=0;entryX=0.5;entryY=1;entryDx=0;entryDy=0;endArrow=block;endFill=0;endSize=11;" edge="1" parent="1" source="IQ-r9HLCSGWOsrEKadv5-4" target="IQ-r9HLCSGWOsrEKadv5-2">
          <mxGeometry relative="1" as="geometry" />
        </mxCell>
        <mxCell id="80e5l8s0I1vSb8lgDYLV-21" value="Extends" style="edgeLabel;html=1;align=center;verticalAlign=middle;resizable=0;points=[];" vertex="1" connectable="0" parent="80e5l8s0I1vSb8lgDYLV-16">
          <mxGeometry x="0.3214" y="-3" relative="1" as="geometry">
            <mxPoint as="offset" />
          </mxGeometry>
        </mxCell>
        <mxCell id="80e5l8s0I1vSb8lgDYLV-22" value="Extends" style="edgeLabel;html=1;align=center;verticalAlign=middle;resizable=0;points=[];" vertex="1" connectable="0" parent="80e5l8s0I1vSb8lgDYLV-16">
          <mxGeometry x="-0.5682" y="-1" relative="1" as="geometry">
            <mxPoint as="offset" />
          </mxGeometry>
        </mxCell>
        <mxCell id="IQ-r9HLCSGWOsrEKadv5-4" value="&lt;p style=&quot;margin:0px;margin-top:4px;text-align:center;&quot;&gt;&lt;b&gt;EditMenu&lt;/b&gt;&lt;/p&gt;&lt;hr size=&quot;1&quot;&gt;&lt;div style=&quot;height:2px;&quot;&gt;&lt;/div&gt;" style="verticalAlign=top;align=left;overflow=fill;fontSize=12;fontFamily=Helvetica;html=1;whiteSpace=wrap;" parent="1" vertex="1">
          <mxGeometry x="654" y="160" width="140" height="60" as="geometry" />
        </mxCell>
        <mxCell id="80e5l8s0I1vSb8lgDYLV-13" style="edgeStyle=orthogonalEdgeStyle;rounded=0;orthogonalLoop=1;jettySize=auto;html=1;exitX=0.5;exitY=0;exitDx=0;exitDy=0;entryX=0.5;entryY=1;entryDx=0;entryDy=0;endArrow=block;endFill=0;endSize=11;" edge="1" parent="1" source="80e5l8s0I1vSb8lgDYLV-2" target="IQ-r9HLCSGWOsrEKadv5-2">
          <mxGeometry relative="1" as="geometry" />
        </mxCell>
        <mxCell id="80e5l8s0I1vSb8lgDYLV-19" value="Extends" style="edgeLabel;html=1;align=center;verticalAlign=middle;resizable=0;points=[];" vertex="1" connectable="0" parent="80e5l8s0I1vSb8lgDYLV-13">
          <mxGeometry x="-0.3482" y="1" relative="1" as="geometry">
            <mxPoint as="offset" />
          </mxGeometry>
        </mxCell>
        <mxCell id="80e5l8s0I1vSb8lgDYLV-2" value="&lt;p style=&quot;margin:0px;margin-top:4px;text-align:center;&quot;&gt;&lt;b&gt;StartMenu&lt;/b&gt;&lt;/p&gt;&lt;hr size=&quot;1&quot;&gt;&lt;div style=&quot;height:2px;&quot;&gt;&lt;/div&gt;" style="verticalAlign=top;align=left;overflow=fill;fontSize=12;fontFamily=Helvetica;html=1;whiteSpace=wrap;" vertex="1" parent="1">
          <mxGeometry x="204" y="280" width="140" height="60" as="geometry" />
        </mxCell>
        <mxCell id="80e5l8s0I1vSb8lgDYLV-14" style="edgeStyle=orthogonalEdgeStyle;rounded=0;orthogonalLoop=1;jettySize=auto;html=1;exitX=0.5;exitY=0;exitDx=0;exitDy=0;entryX=0.5;entryY=1;entryDx=0;entryDy=0;endArrow=block;endFill=0;endSize=11;" edge="1" parent="1" source="80e5l8s0I1vSb8lgDYLV-5" target="IQ-r9HLCSGWOsrEKadv5-2">
          <mxGeometry relative="1" as="geometry" />
        </mxCell>
        <mxCell id="80e5l8s0I1vSb8lgDYLV-20" value="Extends" style="edgeLabel;html=1;align=center;verticalAlign=middle;resizable=0;points=[];" vertex="1" connectable="0" parent="80e5l8s0I1vSb8lgDYLV-14">
          <mxGeometry x="-0.1773" relative="1" as="geometry">
            <mxPoint as="offset" />
          </mxGeometry>
        </mxCell>
        <mxCell id="80e5l8s0I1vSb8lgDYLV-5" value="&lt;p style=&quot;margin:0px;margin-top:4px;text-align:center;&quot;&gt;&lt;b&gt;ChooseGameMenu&lt;/b&gt;&lt;/p&gt;&lt;hr size=&quot;1&quot;&gt;&lt;div style=&quot;height:2px;&quot;&gt;&lt;/div&gt;" style="verticalAlign=top;align=left;overflow=fill;fontSize=12;fontFamily=Helvetica;html=1;whiteSpace=wrap;" vertex="1" parent="1">
          <mxGeometry x="348" y="280" width="140" height="60" as="geometry" />
        </mxCell>
        <mxCell id="80e5l8s0I1vSb8lgDYLV-17" style="edgeStyle=orthogonalEdgeStyle;rounded=0;orthogonalLoop=1;jettySize=auto;html=1;exitX=0.5;exitY=0;exitDx=0;exitDy=0;entryX=0.5;entryY=1;entryDx=0;entryDy=0;endArrow=block;endFill=0;endSize=11;" edge="1" parent="1" source="80e5l8s0I1vSb8lgDYLV-6" target="IQ-r9HLCSGWOsrEKadv5-3">
          <mxGeometry relative="1" as="geometry" />
        </mxCell>
        <mxCell id="80e5l8s0I1vSb8lgDYLV-23" value="Extends" style="edgeLabel;html=1;align=center;verticalAlign=middle;resizable=0;points=[];" vertex="1" connectable="0" parent="80e5l8s0I1vSb8lgDYLV-17">
          <mxGeometry x="-0.302" y="-1" relative="1" as="geometry">
            <mxPoint as="offset" />
          </mxGeometry>
        </mxCell>
        <mxCell id="80e5l8s0I1vSb8lgDYLV-6" value="&lt;p style=&quot;margin:0px;margin-top:4px;text-align:center;&quot;&gt;&lt;b&gt;ManageAccountMenu&lt;/b&gt;&lt;/p&gt;&lt;hr size=&quot;1&quot;&gt;&lt;div style=&quot;height:2px;&quot;&gt;&lt;/div&gt;" style="verticalAlign=top;align=left;overflow=fill;fontSize=12;fontFamily=Helvetica;html=1;whiteSpace=wrap;" vertex="1" parent="1">
          <mxGeometry x="504" y="280" width="140" height="60" as="geometry" />
        </mxCell>
        <mxCell id="80e5l8s0I1vSb8lgDYLV-18" style="edgeStyle=orthogonalEdgeStyle;rounded=0;orthogonalLoop=1;jettySize=auto;html=1;exitX=0.5;exitY=0;exitDx=0;exitDy=0;entryX=0.5;entryY=1;entryDx=0;entryDy=0;endArrow=block;endFill=0;endSize=11;" edge="1" parent="1" source="80e5l8s0I1vSb8lgDYLV-7" target="IQ-r9HLCSGWOsrEKadv5-4">
          <mxGeometry relative="1" as="geometry" />
        </mxCell>
        <mxCell id="80e5l8s0I1vSb8lgDYLV-24" value="Extends" style="edgeLabel;html=1;align=center;verticalAlign=middle;resizable=0;points=[];" vertex="1" connectable="0" parent="80e5l8s0I1vSb8lgDYLV-18">
          <mxGeometry x="-0.4333" relative="1" as="geometry">
            <mxPoint y="-3" as="offset" />
          </mxGeometry>
        </mxCell>
        <mxCell id="80e5l8s0I1vSb8lgDYLV-7" value="&lt;p style=&quot;margin:0px;margin-top:4px;text-align:center;&quot;&gt;&lt;b&gt;EditAccountMenu&lt;/b&gt;&lt;/p&gt;&lt;hr size=&quot;1&quot;&gt;&lt;div style=&quot;height:2px;&quot;&gt;&lt;/div&gt;" style="verticalAlign=top;align=left;overflow=fill;fontSize=12;fontFamily=Helvetica;html=1;whiteSpace=wrap;" vertex="1" parent="1">
          <mxGeometry x="654" y="280" width="140" height="60" as="geometry" />
        </mxCell>
      </root>
    </mxGraphModel>
  </diagram>
</mxfile>
